{"asset": {"version": "2.0", "generator": "AURORA cesium_gltf"}, "scene": 0, "scenes": [{"nodes": [0]}], "nodes": [{"mesh": 0, "name": "AURORA_SAT"}], "meshes": [{"name": "AURORA", "primitives": [{"attributes": {"POSITION": 0, "NORMAL": 1}, "indices": 2, "material": 0}, {"attributes": {"POSITION": 3, "NORMAL": 4}, "indices": 5, "material": 1}, {"attributes": {"POSITION": 6, "NORMAL": 7}, "indices": 8, "material": 2}, {"attributes": {"POSITION": 9, "NORMAL": 10}, "indices": 11, "material": 3}]}], "materials": [{"pbrMetallicRoughness": {"baseColorFactor": [0.8, 0.63, 0.18, 1.0], "metallicFactor": 0.6, "roughnessFactor": 0.45}}, {"pbrMetallicRoughness": {"baseColorFactor": [0.09, 0.13, 0.32, 1.0], "metallicFactor": 0.1, "roughnessFactor": 0.7}}, {"pbrMetallicRoughness": {"baseColorFactor": [0.09, 0.13, 0.32, 1.0], "metallicFactor": 0.1, "roughnessFactor": 0.7}}, {"pbrMetallicRoughness": {"baseColorFactor": [0.85, 0.18, 0.12, 1.0], "metallicFactor": 0.2, "roughnessFactor": 0.5}}], "accessors": [{"bufferView": 0, "componentType": 5126, "count": 24, "type": "VEC3", "min": [-1.0, -0.6000000238418579, -0.6000000238418579], "max": [1.0, 0.6000000238418579, 0.6000000238418579]}, {"bufferView": 1, "componentType": 5126, "count": 24, "type": "VEC3"}, {"bufferView": 2, "componentType": 5123, "count": 36, "type": "SCALAR"}, {"bufferView": 3, "componentType": 5126, "count": 24, "type": "VEC3", "min": [-1.600000023841858, 0.8999999761581421, -0.03999999910593033], "max": [1.600000023841858, 5.099999904632568, 0.03999999910593033]}, {"bufferView": 4, "componentType": 5126, "count": 24, "type": "VEC3"}, {"bufferView": 5, "componentType": 5123, "count": 36, "type": "SCALAR"}, {"bufferView": 6, "componentType": 5126, "count": 24, "type": "VEC3", "min": [-1.600000023841858, -5.099999904632568, -0.03999999910593033], "max": [1.600000023841858, -0.8999999761581421, 0.03999999910593033]}, {"bufferView": 7, "componentType": 5126, "count": 24, "type": "VEC3"}, {"bufferView": 8, "componentType": 5123, "count": 36, "type": "SCALAR"}, {"bufferView": 9, "componentType": 5126, "count": 24, "type": "VEC3", "min": [1.0, -0.3499999940395355, -0.3499999940395355], "max": [1.100000023841858, 0.3499999940395355, 0.3499999940395355]}, {"bufferView": 10, "componentType": 5126, "count": 24, "type": "VEC3"}, {"bufferView": 11, "componentType": 5123, "count": 36, "type": "SCALAR"}], "bufferViews": [{"buffer": 0, "byteOffset": 0, "byteLength": 288, "target": 34962}, {"buffer": 0, "byteOffset": 288, "byteLength": 288, "target": 34962}, {"buffer": 0, "byteOffset": 576, "byteLength": 72, "target": 34963}, {"buffer": 0, "byteOffset": 648, "byteLength": 288, "target": 34962}, {"buffer": 0, "byteOffset": 936, "byteLength": 288, "target": 34962}, {"buffer": 0, "byteOffset": 1224, "byteLength": 72, "target": 34963}, {"buffer": 0, "byteOffset": 1296, "byteLength": 288, "target": 34962}, {"buffer": 0, "byteOffset": 1584, "byteLength": 288, "target": 34962}, {"buffer": 0, "byteOffset": 1872, "byteLength": 72, "target": 34963}, {"buffer": 0, "byteOffset": 1944, "byteLength": 288, "target": 34962}, {"buffer": 0, "byteOffset": 2232, "byteLength": 288, "target": 34962}, {"buffer": 0, "byteOffset": 2520, "byteLength": 72, "target": 34963}], "buffers": [{"byteLength": 2592, "uri": "data:application/octet-stream;base64,"}]}